# xmcd CD database file
#
# Track frame offsets:
#	150
#	14680
#	26887
#	39452
#	50715
#	60812
#	71247
#	83050
#	95705
#	107360
#	119887
#	132437
#	144672
#	157085
#	169070
#	181190
#	195710
#	206247
#	220140
#	235470
#
# Disc length: 3338 seconds
#
# Revision: 1
# Processed by: cddbd v1.5.2PL0 Copyright (c) Steve Scherf et al.
# Submitted via: CDex 1.70beta2
#
DISCID=330d0814
DTITLE=Al Martino - The Al Martino Collection - I Love You Just Because
DYEAR=1900
DGENRE=Easy Listening
TTITLE0=Here In My Heart (Genaro-Levinson-Borrelli) (1951)
TTITLE1=I Love You Because (Payne) (1963)
TTITLE2=Painted, Tainted Rose (Sawyer-De Angelis) (1963)
TTITLE3=Living A Lie (Sawyer-De Angelis) (1963)
TTITLE4=I Love You More and More Every Day (Robertson) (1964)
TTITLE5=Tears and Roses (Hunter-Heard) (1964)
TTITLE6=Always Together (Sawyer-De Angelis) (1964)
TTITLE7=We Could (Bryant) (1964)
TTITLE8=Forgive Me (Allen-Yeller) (1965)
TTITLE9=Spanish Eyes (Kaempfert-Singleton-Snyder) (1965)
TTITLE10=Think I'll Go Somewhere and Cry Mself to Sleep (Anderson) (1966)
TTITLE11=Wiedersehn (Kaempfert-Galter-Rehbein) (1966)
TTITLE12=Just Yesterday (Faith-De Angelis) (1966)
TTITLE13=More Than The Eye Can See (Weiss-Crewe) (1967)
TTITLE14=Love Is Blue (L'Amour Est Bleu) (Blackburn-Lemaire-Popp) (1968)
TTITLE15=Sausalito (Cashman-Pistilli-West) (1969)
TTITLE16=Can't Help Falling In Love (Weiss-Peretti-Creatore) (1970)
TTITLE17=Speak Softly Love (Kusik-Rota) (1971)
TTITLE18=To The Door Of The Sun (Alle Porte Del Sole) (Pace-Panzeri-Pilat-Conti-Newell) (1974)
TTITLE19=Volare (Nel Blu Dipinto Di Blu) (Modugno-Migliacci-Parish) (1975)
EXTD=
EXTT0=
EXTT1=
EXTT2=
EXTT3=
EXTT4=
EXTT5=
EXTT6=
EXTT7=
EXTT8=
EXTT9=
EXTT10=
EXTT11=
EXTT12=
EXTT13=
EXTT14=
EXTT15=
EXTT16=
EXTT17=
EXTT18=
EXTT19=
PLAYORDER=
